{
  "source": "C:\\Users\\Peter\\Desktop\\stuff\\MIUN\\quantitative_research\\video_compression\\videos\\BVI-HD\\Rowing_1920x1080_30fps.mp4",
  "output": "C:\\Users\\Peter\\Desktop\\stuff\\MIUN\\quantitative_research\\video_compression\\compressed_videos\\BVI-HD\\vp9\\12\\Rowing_1920x1080_30fps_vp9.webm",
  "codec": "vp9",
  "ok": "Input #0, mov,mp4,m4a,3gp,3g2,mj2, from 'C:\\Users\\Peter\\Desktop\\stuff\\MIUN\\quantitative_research\\video_compression\\videos\\BVI-HD\\Rowing_1920x1080_30fps.mp4':\n  Metadata:\n    major_brand     : isom\n    minor_version   : 512\n    compatible_brands: isomiso2avc1mp41\n    encoder         : Lavf54.28.101\n  Duration: 00:00:05.00, start: 0.000000, bitrate: 259220 kb/s\n  Stream #0:0[0x1](und): Video: h264 (High 4:4:4 Predictive) (avc1 / 0x31637661), yuv420p(progressive), 1920x1080, 259216 kb/s, 30 fps, 30 tbr, 30 tbn (default)\n    Metadata:\n      handler_name    : VideoHandler\n      vendor_id       : [0][0][0][0]\n[out#0/webm @ 000001d7dfad9380] Codec AVOption b:a (set bitrate (in bits/s)) has not been used for any stream. The most likely reason is either wrong type (e.g. a video option with no video streams) or that it is a private option of some decoder which was not actually used for any stream.\nStream mapping:\n  Stream #0:0 -> #0:0 (h264 (native) -> vp9 (libvpx-vp9))\nPress [q] to stop, [?] for help\n[libvpx-vp9 @ 000001d7e05c0340] v1.15.2-100-g40561f514\nOutput #0, webm, to 'C:\\Users\\Peter\\Desktop\\stuff\\MIUN\\quantitative_research\\video_compression\\compressed_videos\\BVI-HD\\vp9\\12\\Rowing_1920x1080_30fps_vp9.webm':\n  Metadata:\n    major_brand     : isom\n    minor_version   : 512\n    compatible_brands: isomiso2avc1mp41\n    encoder         : Lavf62.3.100\n  Stream #0:0(und): Video: vp9, yuv420p(tv, progressive), 1920x1080, q=2-31, 12000 kb/s, 30 fps, 1k tbn (default)\n    Metadata:\n      encoder         : Lavc62.11.100 libvpx-vp9\n      handler_name    : VideoHandler\n      vendor_id       : [0][0][0][0]\n    Side data:\n      cpb: bitrate max/min/avg: 0/0/0 buffer size: 12000000 vbv_delay: N/A\nframe=    0 fps=0.0 q=0.0 size=       0KiB time=N/A bitrate=N/A speed=N/A elapsed=0:00:00.52    \nframe=    2 fps=1.7 q=23.0 size=       1KiB time=00:00:00.06 bitrate=  76.1kbits/s speed=0.0569x elapsed=0:00:01.17    \nframe=    4 fps=2.3 q=49.0 size=       1KiB time=00:00:00.13 bitrate=  38.0kbits/s speed=0.0782x elapsed=0:00:01.70    \nframe=    7 fps=3.2 q=50.0 size=       1KiB time=00:00:00.23 bitrate=  21.7kbits/s speed=0.105x elapsed=0:00:02.21    \nframe=    9 fps=3.3 q=50.0 size=       1KiB time=00:00:00.30 bitrate=  16.9kbits/s speed=0.109x elapsed=0:00:02.75    \nframe=   11 fps=3.4 q=25.0 size=       1KiB time=00:00:00.36 bitrate=  13.8kbits/s speed=0.112x elapsed=0:00:03.27    \nframe=   13 fps=3.4 q=50.0 size=       1KiB time=00:00:00.43 bitrate=  11.7kbits/s speed=0.114x elapsed=0:00:03.80    \nframe=   15 fps=3.5 q=50.0 size=       1KiB time=00:00:00.50 bitrate=  10.1kbits/s speed=0.116x elapsed=0:00:04.32    \nframe=   17 fps=3.5 q=51.0 size=       1KiB time=00:00:00.56 bitrate=   9.0kbits/s speed=0.117x elapsed=0:00:04.84    \nframe=   19 fps=3.6 q=51.0 size=       1KiB time=00:00:00.63 bitrate=   8.0kbits/s speed=0.118x elapsed=0:00:05.35    \nframe=   21 fps=3.6 q=27.0 size=       1KiB time=00:00:00.70 bitrate=   7.2kbits/s speed=0.119x elapsed=0:00:05.87    \nframe=   23 fps=3.6 q=51.0 size=       1KiB time=00:00:00.76 bitrate=   6.6kbits/s speed=0.12x elapsed=0:00:06.39    \nframe=   26 fps=3.8 q=51.0 size=       1KiB time=00:00:00.86 bitrate=   5.9kbits/s speed=0.125x elapsed=0:00:06.91    \nframe=   28 fps=3.7 q=52.0 size=       1KiB time=00:00:00.93 bitrate=   5.4kbits/s speed=0.125x elapsed=0:00:07.48    \nframe=   30 fps=3.8 q=52.0 size=       1KiB time=00:00:01.00 bitrate=   5.1kbits/s speed=0.125x elapsed=0:00:07.99    \nframe=   31 fps=3.6 q=28.0 size=       1KiB time=00:00:01.03 bitrate=   4.9kbits/s speed=0.121x elapsed=0:00:08.52    \nframe=   33 fps=3.6 q=53.0 size=       1KiB time=00:00:01.10 bitrate=   4.6kbits/s speed=0.121x elapsed=0:00:09.05    \nframe=   35 fps=3.6 q=53.0 size=       1KiB time=00:00:01.16 bitrate=   4.3kbits/s speed=0.122x elapsed=0:00:09.59    \nframe=   37 fps=3.7 q=53.0 size=       1KiB time=00:00:01.23 bitrate=   4.1kbits/s speed=0.122x elapsed=0:00:10.10    \nframe=   39 fps=3.7 q=53.0 size=       1KiB time=00:00:01.30 bitrate=   3.9kbits/s speed=0.122x elapsed=0:00:10.65    \nframe=   41 fps=3.7 q=30.0 size=       1KiB time=00:00:01.36 bitrate=   3.7kbits/s speed=0.122x elapsed=0:00:11.20    \nframe=   43 fps=3.7 q=57.0 size=       1KiB time=00:00:01.43 bitrate=   3.5kbits/s speed=0.122x elapsed=0:00:11.72    \nframe=   45 fps=3.7 q=56.0 size=       1KiB time=00:00:01.50 bitrate=   3.4kbits/s speed=0.122x elapsed=0:00:12.26    \nframe=   47 fps=3.7 q=56.0 size=       1KiB time=00:00:01.56 bitrate=   3.2kbits/s speed=0.122x elapsed=0:00:12.80    \nframe=   49 fps=3.7 q=55.0 size=       1KiB time=00:00:01.63 bitrate=   3.1kbits/s speed=0.123x elapsed=0:00:13.33    \nframe=   51 fps=3.7 q=41.0 size=       1KiB time=00:00:01.70 bitrate=   3.0kbits/s speed=0.123x elapsed=0:00:13.86    \nframe=   53 fps=3.7 q=50.0 size=       1KiB time=00:00:01.76 bitrate=   2.9kbits/s speed=0.123x elapsed=0:00:14.37    \nframe=   56 fps=3.8 q=50.0 size=       1KiB time=00:00:01.86 bitrate=   2.7kbits/s speed=0.125x elapsed=0:00:14.91    \nframe=   58 fps=3.8 q=50.0 size=       1KiB time=00:00:01.93 bitrate=   2.6kbits/s speed=0.125x elapsed=0:00:15.45    \nframe=   60 fps=3.8 q=50.0 size=       1KiB time=00:00:02.00 bitrate=   2.5kbits/s speed=0.125x elapsed=0:00:15.99    \nframe=   62 fps=3.8 q=50.0 size=       1KiB time=00:00:02.06 bitrate=   2.5kbits/s speed=0.125x elapsed=0:00:16.52    \nframe=   64 fps=3.8 q=50.0 size=       1KiB time=00:00:02.13 bitrate=   2.4kbits/s speed=0.125x elapsed=0:00:17.05    \nframe=   66 fps=3.8 q=49.0 size=       1KiB time=00:00:02.20 bitrate=   2.3kbits/s speed=0.125x elapsed=0:00:17.57    \nframe=   68 fps=3.8 q=49.0 size=       1KiB time=00:00:02.26 bitrate=   2.2kbits/s speed=0.125x elapsed=0:00:18.09    \nframe=   71 fps=3.8 q=49.0 size=       1KiB time=00:00:02.36 bitrate=   2.1kbits/s speed=0.127x elapsed=0:00:18.63    \nframe=   73 fps=3.8 q=49.0 size=       1KiB time=00:00:02.43 bitrate=   2.1kbits/s speed=0.127x elapsed=0:00:19.18    \nframe=   75 fps=3.8 q=36.0 size=       1KiB time=00:00:02.50 bitrate=   2.0kbits/s speed=0.127x elapsed=0:00:19.71    \nframe=   77 fps=3.8 q=48.0 size=       1KiB time=00:00:02.56 bitrate=   2.0kbits/s speed=0.127x elapsed=0:00:20.23    \nframe=   80 fps=3.9 q=47.0 size=       1KiB time=00:00:02.66 bitrate=   1.9kbits/s speed=0.129x elapsed=0:00:20.74    \nframe=   82 fps=3.9 q=47.0 size=       1KiB time=00:00:02.73 bitrate=   1.9kbits/s speed=0.129x elapsed=0:00:21.26    \nframe=   84 fps=3.9 q=46.0 size=       1KiB time=00:00:02.80 bitrate=   1.8kbits/s speed=0.128x elapsed=0:00:21.81    \nframe=   86 fps=3.9 q=46.0 size=       1KiB time=00:00:02.86 bitrate=   1.8kbits/s speed=0.128x elapsed=0:00:22.32    \nframe=   89 fps=3.9 q=46.0 size=       1KiB time=00:00:02.96 bitrate=   1.7kbits/s speed=0.13x elapsed=0:00:22.84    \nframe=   91 fps=3.9 q=47.0 size=       1KiB time=00:00:03.03 bitrate=   1.7kbits/s speed=0.13x elapsed=0:00:23.38    \nframe=   93 fps=3.9 q=25.0 size=       1KiB time=00:00:03.10 bitrate=   1.6kbits/s speed=0.13x elapsed=0:00:23.91    \nframe=   95 fps=3.9 q=52.0 size=       1KiB time=00:00:03.16 bitrate=   1.6kbits/s speed=0.13x elapsed=0:00:24.43    \nframe=   98 fps=3.9 q=52.0 size=       1KiB time=00:00:03.26 bitrate=   1.6kbits/s speed=0.131x elapsed=0:00:24.95    \nframe=  100 fps=3.9 q=52.0 size=       1KiB time=00:00:03.33 bitrate=   1.5kbits/s speed=0.131x elapsed=0:00:25.48    \nframe=  102 fps=3.9 q=52.0 size=       1KiB time=00:00:03.40 bitrate=   1.5kbits/s speed=0.131x elapsed=0:00:26.01    \nframe=  105 fps=4.0 q=47.0 size=       1KiB time=00:00:03.50 bitrate=   1.4kbits/s speed=0.132x elapsed=0:00:26.56    \nframe=  107 fps=3.9 q=46.0 size=       1KiB time=00:00:03.56 bitrate=   1.4kbits/s speed=0.132x elapsed=0:00:27.09    \nframe=  110 fps=4.0 q=46.0 size=       1KiB time=00:00:03.66 bitrate=   1.4kbits/s speed=0.133x elapsed=0:00:27.60    \nframe=  113 fps=4.0 q=45.0 size=       1KiB time=00:00:03.76 bitrate=   1.3kbits/s speed=0.134x elapsed=0:00:28.13    \nframe=  116 fps=4.0 q=45.0 size=       1KiB time=00:00:03.86 bitrate=   1.3kbits/s speed=0.135x elapsed=0:00:28.66    \nframe=  119 fps=4.1 q=44.0 size=       1KiB time=00:00:03.96 bitrate=   1.3kbits/s speed=0.136x elapsed=0:00:29.19    \nframe=  121 fps=4.1 q=32.0 size=       1KiB time=00:00:04.03 bitrate=   1.3kbits/s speed=0.136x elapsed=0:00:29.73    \nframe=  124 fps=4.1 q=43.0 size=       1KiB time=00:00:04.13 bitrate=   1.2kbits/s speed=0.137x elapsed=0:00:30.24    \nframe=  126 fps=4.1 q=42.0 size=       1KiB time=00:00:04.20 bitrate=   1.2kbits/s speed=0.137x elapsed=0:00:30.76    \nframe=  126 fps=4.0 q=42.0 size=       1KiB time=00:00:04.20 bitrate=   1.2kbits/s speed=0.134x elapsed=0:00:31.28    \nframe=  126 fps=4.0 q=42.0 size=       1KiB time=00:00:04.20 bitrate=   1.2kbits/s speed=0.132x elapsed=0:00:31.81    \nframe=  126 fps=3.9 q=42.0 size=       1KiB time=00:00:04.20 bitrate=   1.2kbits/s speed=0.13x elapsed=0:00:32.33    \nframe=  126 fps=3.8 q=42.0 size=       1KiB time=00:00:04.20 bitrate=   1.2kbits/s speed=0.128x elapsed=0:00:32.83    \nframe=  126 fps=3.8 q=42.0 size=       1KiB time=00:00:04.20 bitrate=   1.2kbits/s speed=0.126x elapsed=0:00:33.35    \nframe=  126 fps=3.7 q=42.0 size=       1KiB time=00:00:04.20 bitrate=   1.2kbits/s speed=0.124x elapsed=0:00:33.86    \nframe=  126 fps=3.7 q=42.0 size=       1KiB time=00:00:04.20 bitrate=   1.2kbits/s speed=0.122x elapsed=0:00:34.38    \n[out#0/webm @ 000001d7dfad9380] video:5562KiB audio:0KiB subtitle:0KiB other streams:0KiB global headers:0KiB muxing overhead: 0.033307%\nframe=  150 fps=4.3 q=49.0 Lsize=    5564KiB time=00:00:05.00 bitrate=9115.9kbits/s speed=0.144x elapsed=0:00:34.73    \n",
  "seconds": 35.02315640449524,
  "probe_out": {}
}